<svg width="320" height="73" viewBox="0 0 320 73" fill="none" xmlns="http://www.w3.org/2000/svg">
<g clip-path="url(#clip0_247_14)">
<path d="M90.7044 29.9927C88.4435 28.4661 82.504 27.8142 78.1865 28.9819C77.9548 24.6675 75.7351 21.0312 71.6781 17.8584L70.1768 16.8475L69.1759 18.3645C67.2084 21.3599 66.3789 25.3524 66.6723 28.9819C66.904 31.2181 67.6787 33.7308 69.1759 35.5545C63.5559 38.825 58.3746 38.0823 35.4312 38.0823H0.0083314C-0.0944986 43.2796 0.737738 53.2753 7.07481 61.413C7.77542 62.3125 8.54185 63.1817 9.37546 64.0192C14.5279 69.1945 22.3128 72.9904 33.9532 73C51.7126 73.0165 66.9273 63.3866 76.1834 40.1054C79.2285 40.1549 87.2685 40.6527 91.2034 33.0267C91.2994 32.8988 92.2043 31.005 92.2043 31.005L90.7044 29.9941V29.9927ZM23.1259 25.241H13.1651V35.2327H23.1259V25.241ZM35.9933 25.241H26.0325V35.2327H35.9933V25.241ZM48.8622 25.241H38.9014V35.2327H48.8622V25.241ZM61.731 25.241H51.7702V35.2327H61.731V25.241ZM10.2571 25.241H0.296255V35.2327H10.2571V25.241ZM23.1259 12.6212H13.1651V22.6128H23.1259V12.6212ZM35.9933 12.6212H26.0325V22.6128H35.9933V12.6212ZM48.8622 12.6212H38.9014V22.6128H48.8622V12.6212ZM48.8622 0H38.9014V9.99162H48.8622V0Z" fill="white"/>
<path d="M319.382 57.6668C319.382 60.2716 317.343 62.3167 314.691 62.3167C312.04 62.3167 309.972 60.2716 309.972 57.6668C309.972 55.0619 312.066 53.0732 314.691 53.0732C317.317 53.0732 319.382 55.1183 319.382 57.6668ZM311.146 57.6668C311.146 59.7119 312.654 61.3361 314.72 61.3361C316.786 61.3361 318.211 59.7119 318.211 57.6957C318.211 55.6795 316.73 53.9974 314.694 53.9974C312.658 53.9974 311.147 55.6506 311.147 57.6668H311.146ZM313.967 60.0763H312.906V55.4828C313.323 55.3989 313.911 55.3425 314.664 55.3425C315.53 55.3425 315.92 55.4828 316.256 55.6795C316.508 55.8747 316.703 56.2392 316.703 56.6876C316.703 57.1923 316.312 57.5843 315.755 57.752V57.8084C316.2 57.9748 316.452 58.3118 316.592 58.9279C316.73 59.628 316.814 59.9085 316.928 60.0763H315.783C315.643 59.9085 315.558 59.4891 315.419 58.9554C315.336 58.4521 315.056 58.2279 314.469 58.2279H313.967V60.0777V60.0763ZM313.993 57.4715H314.495C315.082 57.4715 315.557 57.2762 315.557 56.8003C315.557 56.3795 315.251 56.0975 314.579 56.0975C314.301 56.0975 314.105 56.1264 313.993 56.1567V57.4715Z" fill="white"/>
<path d="M139.459 11.179C138.803 10.5353 138.014 10.208 137.07 10.208C136.125 10.208 135.313 10.5353 134.681 11.179C134.048 11.8226 133.738 12.6478 133.738 13.6312V30.0523C130.489 27.3581 126.739 25.9993 122.473 25.9993C117.516 25.9993 113.276 27.7955 109.764 31.4001C106.251 34.9924 104.507 39.3384 104.507 44.4353C104.507 49.5322 106.263 53.8658 109.764 57.4705C113.276 61.0628 117.505 62.8713 122.473 62.8713C127.442 62.8713 131.624 61.0752 135.183 57.4705C138.696 53.9139 140.44 49.5693 140.44 44.4353V13.6312C140.44 12.6478 140.118 11.8226 139.459 11.179ZM132.854 48.8776V48.9023C132.268 50.2983 131.467 51.5237 130.453 52.5675C129.438 53.6238 128.243 54.4489 126.881 55.0678C125.507 55.6867 124.05 55.9907 122.486 55.9907C120.921 55.9907 119.428 55.6867 118.054 55.0678C116.681 54.4489 115.497 53.6238 114.495 52.5799C113.491 51.536 112.692 50.3106 112.107 48.9147C111.521 47.5064 111.222 46.0142 111.222 44.4353C111.222 42.8565 111.521 41.3642 112.107 39.9559C112.692 38.5476 113.493 37.3346 114.495 36.2907C115.499 35.2469 116.693 34.4217 118.054 33.8028C119.428 33.1839 120.898 32.88 122.486 32.88C124.073 32.88 125.507 33.1839 126.881 33.8028C128.255 34.4217 129.438 35.2469 130.453 36.3031C131.467 37.3593 132.268 38.5847 132.854 39.9683C133.439 41.3642 133.738 42.8455 133.738 44.4229C133.738 46.0004 133.439 47.494 132.854 48.8776Z" fill="white"/>
<path d="M287.892 37.3593C287.02 35.1739 285.692 33.1962 283.949 31.4235L283.926 31.4111C280.377 27.8188 276.135 26.0103 271.216 26.0103C266.297 26.0103 262.017 27.8064 258.505 31.4111C254.992 35.0034 253.25 39.3494 253.25 44.4463C253.25 49.5432 255.006 53.8768 258.505 57.4814C262.017 61.0737 266.247 62.8823 271.216 62.8823C275.73 62.8823 279.636 61.3901 282.958 58.4043C283.601 57.7249 283.926 56.8997 283.926 55.9397C283.926 54.9798 283.616 54.1312 282.981 53.4875C282.349 52.8439 281.548 52.5166 280.593 52.5166C279.758 52.5413 279.016 52.8205 278.384 53.3789C277.38 54.2522 276.293 54.9206 275.111 55.358C273.928 55.7953 272.638 56.014 271.23 56.014C269.986 56.014 268.792 55.8201 267.658 55.4199C266.521 55.0196 265.46 54.4723 264.516 53.7571C263.559 53.0406 262.736 52.192 262.031 51.1839C261.326 50.1882 260.789 49.0838 260.431 47.8708H285.84C286.782 47.8708 287.57 47.5435 288.228 46.8998C288.886 46.2562 289.208 45.431 289.208 44.4476C289.208 41.8992 288.764 39.5323 287.895 37.3593H287.892ZM260.405 41.0245C260.752 39.8225 261.277 38.7181 261.982 37.7114C262.688 36.7157 263.523 35.8547 264.479 35.1382C265.447 34.4216 266.497 33.8756 267.655 33.4754C268.812 33.0752 269.994 32.8813 271.216 32.8813C272.438 32.8813 273.617 33.0752 274.762 33.4754C275.909 33.8756 276.962 34.4216 277.904 35.1382C278.861 35.8547 279.696 36.7033 280.401 37.7114C281.116 38.7071 281.657 39.8115 282.027 41.0245H260.404H260.405Z" fill="white"/>
<path d="M319.117 28.3165C318.519 27.7223 317.767 27.2602 316.859 26.9205C315.951 26.5808 314.96 26.3498 313.873 26.2164C312.798 26.083 311.782 26.0225 310.84 26.0225C308.7 26.0225 306.694 26.3745 304.807 27.0787C302.919 27.7829 301.175 28.7896 299.574 30.1003V29.4456C299.574 28.4994 299.252 27.6976 298.594 27.0306C297.938 26.3635 297.161 26.0238 296.242 26.0238C295.324 26.0238 294.509 26.3635 293.854 27.0306C293.196 27.6976 292.874 28.5118 292.874 29.4456V59.4617C292.874 60.4079 293.196 61.2097 293.854 61.8768C294.509 62.5438 295.298 62.8835 296.242 62.8835C297.187 62.8835 297.949 62.5438 298.594 61.8768C299.252 61.2097 299.574 60.3955 299.574 59.4617V44.4475C299.574 42.8452 299.873 41.3406 300.458 39.9323C301.044 38.524 301.844 37.311 302.859 36.2671C303.876 35.2233 305.071 34.3981 306.431 33.8026C307.804 33.1961 309.263 32.8921 310.829 32.8921C312.395 32.8921 313.873 33.1713 315.225 33.7173C315.761 33.9607 316.228 34.0818 316.634 34.0818C317.1 34.0818 317.542 33.9965 317.948 33.815C318.353 33.6334 318.713 33.39 319.012 33.075C319.31 32.7601 319.548 32.3956 319.727 31.9707C319.907 31.5581 320.003 31.1084 320.003 30.6229C320.003 29.6767 319.704 28.912 319.107 28.3165H319.118H319.117Z" fill="white"/>
<path d="M178.854 37.3713C177.982 35.1983 176.68 33.2082 174.925 31.4121C171.378 27.8198 167.137 26.0112 162.215 26.0112C157.293 26.0112 153.018 27.8074 149.505 31.4121C145.993 35.0044 144.25 39.3503 144.25 44.4472C144.25 49.5441 146.006 53.8777 149.505 57.4824C153.018 61.0747 157.246 62.8833 162.215 62.8833C167.184 62.8833 171.366 61.0871 174.925 57.4824C178.438 53.9259 180.182 49.5813 180.182 44.4472C180.157 41.8988 179.715 39.5443 178.856 37.3713H178.854ZM172.595 48.8771V48.9019C172.01 50.2978 171.209 51.5232 170.195 52.5671C169.18 53.6233 167.985 54.4485 166.623 55.0674C165.262 55.6863 163.792 55.9902 162.227 55.9902C160.663 55.9902 159.17 55.6863 157.796 55.0674C156.422 54.4485 155.239 53.6233 154.237 52.5794C153.233 51.5356 152.434 50.3102 151.848 48.9142C151.263 47.5059 150.964 46.0137 150.964 44.4349C150.964 42.856 151.263 41.3638 151.848 39.9555C152.434 38.5472 153.235 37.3341 154.237 36.2903C155.24 35.2464 156.435 34.4212 157.796 33.8024C159.17 33.1835 160.64 32.8795 162.227 32.8795C163.815 32.8795 165.249 33.1835 166.623 33.8024C167.997 34.4212 169.18 35.2464 170.195 36.3027C171.209 37.3589 172.01 38.5843 172.595 39.9679C173.181 41.3638 173.48 42.845 173.48 44.4225C173.48 46 173.181 47.4936 172.595 48.8771Z" fill="white"/>
<path d="M250.716 29.4332C250.716 28.9725 250.62 28.5351 250.442 28.1225C250.262 27.71 250.024 27.3345 249.725 27.0182C249.426 26.7032 249.068 26.4474 248.662 26.2783C248.256 26.1091 247.815 26.0115 247.349 26.0115C246.68 26.0115 246.082 26.182 245.557 26.5341L226.373 39.3396V13.6557C226.373 12.6847 226.051 11.8719 225.394 11.2035C224.737 10.5365 223.961 10.1968 223.041 10.1968C222.121 10.1968 221.309 10.5365 220.651 11.2035C219.995 11.8705 219.672 12.6847 219.672 13.6557V59.4136C219.672 60.3598 219.995 61.174 220.651 61.8534C221.308 62.5328 222.096 62.8725 223.041 62.8725C223.986 62.8725 224.749 62.5328 225.394 61.8534C226.051 61.174 226.373 60.3598 226.373 59.4136V47.5309L230.291 44.8972L245.115 61.9744C245.713 62.5685 246.466 62.8601 247.361 62.8601C247.827 62.8601 248.269 62.7748 248.675 62.5933C249.08 62.4227 249.44 62.1683 249.737 61.8534C250.036 61.5384 250.275 61.174 250.454 60.749C250.634 60.3364 250.728 59.8867 250.728 59.4383C250.728 58.5402 250.419 57.7384 249.796 57.0357L235.999 41.1L249.437 32.1426C250.297 31.5484 250.715 30.638 250.715 29.4112V29.436L250.716 29.4332Z" fill="white"/>
<path d="M193.918 36.267C194.945 35.2231 196.14 34.3979 197.514 33.8024C198.888 33.1959 200.346 32.8919 201.91 32.8919C203.319 32.8919 204.622 33.1354 205.828 33.6195C207.023 34.105 208.17 34.8215 209.256 35.7553C209.9 36.2766 210.63 36.5434 211.442 36.5434C212.41 36.5434 213.198 36.2161 213.831 35.56C214.465 34.904 214.775 34.0788 214.775 33.0955C214.775 32.1121 214.392 31.2017 213.616 30.4989C210.319 27.5131 206.414 26.0195 201.91 26.0195C196.952 26.0195 192.713 27.8157 189.2 31.4204C185.687 35.0127 183.945 39.3586 183.945 44.4555C183.945 49.5524 185.701 53.886 189.2 57.4907C192.713 61.083 196.941 62.8916 201.91 62.8916C206.402 62.8916 210.308 61.3993 213.616 58.4122C214.321 57.6846 214.68 56.8471 214.68 55.8761C214.68 54.9051 214.369 54.0676 213.737 53.4239C213.103 52.7803 212.304 52.453 211.348 52.453C210.537 52.4777 209.831 52.7198 209.234 53.1805C208.159 54.1267 207.036 54.8309 205.83 55.304C204.636 55.7771 203.333 56.0081 201.911 56.0081C200.347 56.0081 198.889 55.7042 197.516 55.0977C196.142 54.4912 194.948 53.666 193.919 52.6345C192.892 51.603 192.079 50.3652 191.494 48.9693C190.908 47.561 190.61 46.0564 190.61 44.4542C190.61 42.8519 190.908 41.3473 191.494 39.939C192.079 38.5307 192.891 37.3177 193.919 36.2738V36.2615L193.918 36.267Z" fill="white"/>
</g>
<defs>
<clipPath id="clip0_247_14">
<rect width="320" height="73" fill="white"/>
</clipPath>
</defs>
</svg>
