<svg width="320" height="118" viewBox="0 0 320 118" fill="none" xmlns="http://www.w3.org/2000/svg">
<path d="M42.2316 0V116.431H55.8815V32.224C55.9815 26.9248 55.7815 21.5658 55.2015 16.2667H55.7215C56.7115 18.8115 57.9615 21.2564 59.4215 23.5418L119.421 116.372H136.141V0H122.551V81.8622C122.391 87.5805 122.711 93.2988 123.381 98.9672H123.071C122.341 97.5601 120.731 94.9654 118.331 91.1732L59.9415 0.00998358L42.2316 0ZM166.401 0V116.431H228.431L228.481 103.648H180.351V63.2604H222.491V50.9955H180.351V12.3247H225.561V0.00998358L166.401 0ZM238.9 0V12.3148H272.44V116.421H286.09V12.3148H320V0H238.9ZM8.69176 99.7955C6.40177 99.8454 4.21178 100.833 2.60179 102.55C0.931803 104.216 0.00180805 106.552 0.00180805 108.947C-0.0481917 111.342 0.941803 113.627 2.60179 115.344C4.26178 117.06 6.61177 118.048 9.01176 117.998C11.4617 117.998 13.7517 117.06 15.4217 115.344C17.1417 113.677 18.1317 111.342 18.1317 108.947C18.1317 106.552 17.1417 104.216 15.4217 102.55C13.7517 100.783 11.4617 99.7955 9.01176 99.7955C8.91176 99.7955 8.79176 99.7955 8.69176 99.7955Z" fill="white"/>
</svg>
