<svg xmlns="http://www.w3.org/2000/svg" width="195.026" height="103.177" viewBox="2287.748 4879.586 195.026 103.177"><g data-name="Grupo 112"><path d="m2333.833 4930.007-8.677-11.078h-4.42v19.1h4.42v-11.515l8.95 11.516h4.147v-19.101h-4.42v11.078Z" fill="#fff" fill-rule="evenodd" data-name="Trazado 108"/><g data-name="Grupo 111"><g data-name="Grupo 110" transform="translate(2287.748 4879.586)" clip-path="url(&quot;#a&quot;)"><path d="M72.845 47.168a9.246 9.246 0 0 1 .632-2.136 9.753 9.753 0 0 1 2.169-3.138 9.99 9.99 0 0 1 3.247-2.101c1.237-.5 2.574-.75 4.011-.75 1.437 0 2.774.25 4.011.75s2.32 1.2 3.247 2.1a9.76 9.76 0 0 1 2.17 3.139c.518 1.192.777 2.479.777 3.861 0 1.383-.259 2.67-.777 3.861a9.758 9.758 0 0 1-2.17 3.138 9.832 9.832 0 0 1-1.937 1.45c16.811 14.825 37.45 23.833 46.904 20.269 7.25-2.734 5.884-12.096-2.245-23.178v4.01h-15.171v-19.1h11.953c-4.262-4.929-9.04-9.41-13.983-13.639C103.52 15.372 89.97 6.554 75.41 0l-.087.197c3.574 1.736 7.05 3.683 10.47 5.708a189.436 189.436 0 0 1 23.525 16.57A135.808 135.808 0 0 0 97.685 15C91.632 11.68 85.126 8.498 78.3 6.969a95.567 95.567 0 0 0-2.494-.772l-.026-.008-.475-.137a114.253 114.253 0 0 0-7.64-1.959C50.87.341 33.496-.722 16.345.461l.014.179C20.388.437 24.428.447 28.458.546c6.133.167 12.26.6 18.352 1.32C30.67 1.477 14.369 4.092 0 8.704c20.902-4.482 44.417-6.399 66.21-2.298-5.568 1.173-9.274 4.949-9.341 11.32.03 7.049 3.155 13.644 6.432 19.728.36.632.724 1.261 1.095 1.889h-9.648v19.1H69.92v-4.065H59.441v-3.602h6.85v-3.93h-6.85v-3.438h7.452c2.06 3.22 4.264 6.355 6.603 9.387-.006-.015-.013-.027-.02-.041-.518-1.191-.777-2.478-.777-3.861 0-.159.005-.316.011-.472a93.945 93.945 0 0 1-3.953-5.013h1.529a93.613 93.613 0 0 0 2.559 3.76m-2.538-12.132c-.929-1.792-1.876-3.867-2.603-5.99-.542-3.618.335-6.79 4.191-8.058-4.12 2.359-4.467 7.526-1.588 14.048m20.573-14.85c-5.359-2.093-11.1-3.774-16.955-3.251-2.954.281-5.46 1.35-7.21 3.1.554-2.107 1.949-3.775 4.609-4.587 1.81-.507 3.803-.523 5.683-.338 2.515.296 4.988.91 7.414 1.742 6.67 2.4 13.313 5.89 19.635 10.1-4.441-2.744-8.902-5.05-13.176-6.765m22.949 38.256h-4.147l-8.95-11.515v11.515H96.31v-19.1h4.42l8.678 11.078V39.343h4.42v19.1Zm2.273-23.993a143.82 143.82 0 0 0-12.43-9.567c-8.299-5.559-22.696-13.84-32.876-11.26-2.476.677-4.77 2.577-5.57 5.074-.45 1.413-.595 2.897-.514 4.412-.519 1.334-.759 2.862-.662 4.57a20.8 20.8 0 0 0 .666 3.943c-.052-.12-.108-.241-.16-.362-2.11-5.25-4.193-13.258.874-17.412 4.931-3.66 12.492-1.708 17.855.136 11.27 4.291 22.725 11.616 32.817 20.466M65.96 39.343c-2.033-3.175-3.815-6.504-5.261-10.018-2.222-5.592-4.486-14.468 1.022-18.787 5.371-3.84 13.47-1.556 19.22.44a81.855 81.855 0 0 1 5.115 2.14c-5.932-2.216-12.252-3.473-17.734-1.987-6 1.85-7.51 7.278-6.533 12.939.986 4.93 3.1 10.095 6.03 15.273h-1.86Z" fill="#fff" fill-rule="evenodd" data-name="Trazado 109"/><path d="M132.298 95.148a112.111 112.111 0 0 1-14.91-7.176c8.314 3.675 18.497 6.898 26.345 4.859 13.009-4.067 6.461-21.512 2.084-30.098a88.254 88.254 0 0 0-3.305-5.784l3.47-4.89 4.557 6.384h5.594l-7.368-9.85 6.795-9.25h-5.376l-4.093 5.757-4.093-5.757h-5.594l6.904 9.25-3.313 4.513a105.078 105.078 0 0 0-3.192-4.394 94.198 94.198 0 0 0-4.028-5.565v.261h-10.37v3.439h4.078c-.188-.198-.371-.395-.563-.593.207.196.411.395.616.593h2.719v2.735c.247.26.494.52.737.781 1.083 1.31 2.126 2.63 3.119 3.954 2.686 3.71 5.15 7.624 7.017 11.8 1.241 2.752 2.298 5.974 2.45 8.866-.366 2.62-1.781 4.879-4.938 6.088 3.052-1.147 4.497-3.292 4.95-5.811.14 4.218-1.726 7.668-7.9 7.801-3.369.028-6.658-.75-9.876-1.803-.948-.332-1.9-.696-2.855-1.076 5.1 1.553 10.493 2.39 15.032 1.087-5.608 1.577-12.32-.102-18.232-2.44-10.803-4.852-21.692-12.49-30.846-21.306-.322.171-.652.33-.998.47-.697.282-1.426.481-2.187.605 5.994 5.245 12.588 9.805 19.537 13.714 4.38 3.053 8.878 5.774 13.399 8.066 6.044 2.905 14.032 6.031 20.787 4.3 5.899-1.798 6.852-6.842 5.913-11.9 1.862 6.197 1.914 12.682-4.59 14.698-11.991 3.11-31.282-8.98-40.7-16.116-4.884-3.732-9.927-8.017-14.685-12.712-.483.063-.977.096-1.485.096-1.437 0-2.774-.25-4.011-.75a10.153 10.153 0 0 1-2.207-1.237 125.324 125.324 0 0 0 6.056 6.731c2.44 2.954 5.09 5.719 7.849 8.377 12.143 11.638 26.843 20.604 42.813 25.871 18.287 6.07 38.147 6.834 57.015 3.421-19.505 2.81-39.738 1.223-58.12-6.01m-7.628-6.72c5.018 1.667 10.558 2.947 15.833 1.552 9.836-3.006 8.206-13.912 5.01-21.397a64.507 64.507 0 0 0-3.034-6.129c.357.527.71 1.054 1.054 1.58 3.512 5.663 6.848 11.915 6.991 18.721.015 4.711-2.31 8.332-6.903 9.697-9.767 2.538-22.14-3.759-31.625-9.914 4.391 2.523 8.679 4.535 12.674 5.89" fill="#fff" fill-rule="evenodd" data-name="Trazado 110"/><path d="M84.731 54.12c.101-.035.203-.068.302-.11a5.303 5.303 0 0 0 1.705-1.16 5.287 5.287 0 0 0 1.132-1.76c.274-.683.41-1.414.41-2.197 0-.8-.136-1.537-.41-2.21a5.32 5.32 0 0 0-1.132-1.747 5.304 5.304 0 0 0-3.834-1.582 5.325 5.325 0 0 0-3.833 1.582 5.308 5.308 0 0 0-1.133 1.747 5.828 5.828 0 0 0-.41 2.21c0 .783.137 1.514.41 2.197.273.682.65 1.268 1.133 1.76a5.318 5.318 0 0 0 3.834 1.582 5.44 5.44 0 0 0 1.673-.255c-.909-.95-1.798-1.91-2.662-2.88.896.938 1.837 1.88 2.815 2.824" fill="#fff" fill-rule="evenodd" data-name="Trazado 111"/><path d="M129.255 49.897v.879h-6.85v3.602h10.44a72.638 72.638 0 0 0-3.59-4.48" fill="#fff" fill-rule="evenodd" data-name="Trazado 112"/><path d="M162.336 57.666c1.3.7 2.833 1.05 4.598 1.05 1.764 0 3.297-.354 4.598-1.064 1.3-.71 2.31-1.71 3.029-3.001.718-1.292 1.077-2.801 1.077-4.53V39.343h-4.693V50.12c0 .855-.164 1.606-.491 2.251a3.521 3.521 0 0 1-1.378 1.487c-.591.346-1.296.519-2.114.519-.801 0-1.506-.173-2.115-.519a3.467 3.467 0 0 1-1.405-1.487c-.328-.645-.492-1.396-.492-2.251V39.343h-4.693V50.12c0 1.747.355 3.266 1.064 4.557a7.334 7.334 0 0 0 3.015 2.988" fill="#fff" fill-rule="evenodd" data-name="Trazado 113"/><path d="M193.593 48.838c-.955-.927-2.351-1.537-4.189-1.828l-3.956-.655c-.8-.145-1.378-.345-1.733-.6-.355-.254-.532-.618-.532-1.091 0-.346.123-.642.368-.887.246-.246.6-.437 1.065-.573.464-.137 1.014-.205 1.65-.205 1.947 0 3.903.755 5.867 2.265l2.483-3.466c-1.055-.854-2.301-1.523-3.738-2.005-1.437-.482-2.865-.723-4.284-.723-1.62 0-3.015.236-4.188.71-1.174.473-2.074 1.155-2.702 2.046-.627.891-.941 1.955-.941 3.193 0 1.4.418 2.555 1.255 3.465.836.91 2.028 1.5 3.574 1.773l4.202.737c.964.164 1.647.392 2.047.682.4.292.6.7.6 1.228 0 .382-.136.714-.409.996-.273.282-.664.496-1.173.642-.51.145-1.128.218-1.856.218a8.08 8.08 0 0 1-3.138-.614c-.982-.41-2.056-1.087-3.22-2.033l-2.619 3.41c1.182 1.002 2.528 1.784 4.039 2.348 1.509.564 3.037.846 4.584.846 1.728 0 3.22-.256 4.474-.765 1.256-.509 2.22-1.232 2.893-2.169.673-.937 1.01-2.05 1.01-3.343 0-1.473-.478-2.674-1.433-3.602" fill="#fff" fill-rule="evenodd" data-name="Trazado 114"/></g></g></g><defs><clipPath id="a"><path d="M0 0h195.026v103.177H0V0z" data-name="Rectángulo 69"/></clipPath></defs></svg>