<svg xmlns="http://www.w3.org/2000/svg" width="148.307" height="78.461" viewBox="2196.099 312.424 148.307 78.461"><g data-name="Grupo 110"><path d="m2231.144 350.767-6.598-8.425h-3.362v14.525h3.362v-8.756l6.806 8.756h3.154v-14.525h-3.362v8.425Z" fill="#0a2b3e" fill-rule="evenodd" data-name="Trazado 108"/><g data-name="Grupo 111"><g data-name="Grupo 110" transform="translate(2196.1 312.424)" clip-path="url(&quot;#a&quot;)"><path d="M55.395 35.869a7.031 7.031 0 0 1 .48-1.625 7.417 7.417 0 0 1 1.65-2.386 7.596 7.596 0 0 1 2.47-1.598c.94-.38 1.956-.57 3.05-.57 1.092 0 2.109.19 3.05.57.94.381 1.764.913 2.469 1.598a7.423 7.423 0 0 1 1.65 2.386c.394.907.591 1.886.591 2.937a7.28 7.28 0 0 1-.591 2.936 7.42 7.42 0 0 1-1.65 2.386c-.443.43-.938.793-1.473 1.103 12.784 11.273 28.478 18.124 35.668 15.413 5.513-2.079 4.475-9.198-1.707-17.626v3.05H89.515V29.918h9.09c-3.241-3.748-6.876-7.155-10.634-10.371C78.72 11.69 68.419 4.984 57.345 0l-.066.15c2.718 1.32 5.362 2.8 7.962 4.34a144.056 144.056 0 0 1 17.89 12.602 103.275 103.275 0 0 0-8.847-5.685c-4.603-2.524-9.55-4.945-14.74-6.108-.63-.203-1.261-.4-1.897-.587l-.02-.005c-.12-.036-.24-.07-.361-.105a86.88 86.88 0 0 0-5.81-1.49C38.683.26 25.472-.548 12.43.35l.01.136c3.063-.154 6.135-.146 9.2-.071 4.664.127 9.323.456 13.955 1.004C23.324 1.123 10.926 3.112 0 6.62 15.895 3.21 33.777 1.753 50.35 4.872c-4.235.891-7.053 3.763-7.104 8.607.023 5.361 2.399 10.377 4.891 15.003.274.48.551.96.833 1.436h-7.337v14.525h11.538v-3.092h-7.969v-2.739h5.209v-2.988h-5.209V33.01h5.667a99.136 99.136 0 0 0 5.021 7.138c-.004-.011-.01-.02-.015-.031a7.275 7.275 0 0 1-.591-2.936c0-.121.003-.24.008-.36a71.435 71.435 0 0 1-3.005-3.811h1.162a71.17 71.17 0 0 0 1.946 2.859m-1.93-9.226c-.707-1.362-1.427-2.94-1.98-4.556-.412-2.75.255-5.162 3.188-6.127-3.134 1.794-3.398 5.723-1.208 10.683m15.644-11.292c-4.074-1.593-8.44-2.87-12.893-2.473-2.246.214-4.151 1.027-5.483 2.358.422-1.602 1.482-2.87 3.505-3.489 1.376-.385 2.892-.398 4.322-.256 1.912.225 3.793.691 5.638 1.324 5.072 1.826 10.124 4.479 14.932 7.68-3.378-2.086-6.77-3.84-10.02-5.144M86.56 44.443h-3.154l-6.806-8.756v8.756H73.24V29.918H76.6l6.599 8.425v-8.425h3.361v14.525Zm1.728-18.246a109.37 109.37 0 0 0-9.451-7.275c-6.311-4.227-17.26-10.524-25.001-8.563-1.883.515-3.627 1.96-4.236 3.86-.342 1.073-.452 2.202-.39 3.354-.395 1.015-.578 2.177-.504 3.475.069 1.024.248 2.023.507 2.999-.04-.092-.083-.183-.122-.275-1.604-3.993-3.189-10.082.664-13.242 3.75-2.783 9.5-1.298 13.578.104 8.57 3.264 17.282 8.833 24.955 15.563m-38.13 3.721c-1.545-2.414-2.9-4.945-4-7.617-1.69-4.253-3.411-11.003.777-14.288 4.085-2.919 10.243-1.183 14.617.335a62.248 62.248 0 0 1 3.89 1.628c-4.512-1.685-9.318-2.641-13.486-1.512-4.564 1.408-5.711 5.535-4.97 9.84.75 3.749 2.358 7.676 4.587 11.614H50.16Z" fill="#0a2b3e" fill-rule="evenodd" data-name="Trazado 109"/><path d="M100.606 72.355a85.252 85.252 0 0 1-11.339-5.457c6.323 2.795 14.067 5.246 20.035 3.695 9.892-3.092 4.913-16.359 1.585-22.888a67.116 67.116 0 0 0-2.513-4.398l2.638-3.72 3.466 4.856h4.253l-5.602-7.49 5.166-7.035h-4.087l-3.113 4.379-3.112-4.379h-4.254l5.25 7.034-2.52 3.433a79.98 79.98 0 0 0-2.427-3.342 71.646 71.646 0 0 0-3.063-4.232v.199h-7.885v2.614h3.1c-.143-.15-.282-.3-.428-.45.158.149.312.3.468.45h2.068v2.08c.188.198.376.395.56.595.824.996 1.617 2 2.372 3.007 2.043 2.821 3.917 5.797 5.337 8.973.943 2.093 1.747 4.543 1.863 6.742-.279 1.992-1.355 3.71-3.756 4.63 2.322-.873 3.42-2.504 3.765-4.42.106 3.208-1.313 5.831-6.008 5.933-2.562.02-5.063-.57-7.51-1.371a55.82 55.82 0 0 1-2.171-.819c3.879 1.181 7.98 1.819 11.43.827-4.264 1.2-9.368-.078-13.863-1.856-8.216-3.69-16.497-9.498-23.458-16.201-.244.13-.495.25-.758.357a7.715 7.715 0 0 1-1.663.46c4.558 3.989 9.572 7.456 14.856 10.428 3.33 2.323 6.751 4.392 10.19 6.135 4.596 2.208 10.67 4.586 15.807 3.27 4.486-1.368 5.21-5.203 4.497-9.05 1.416 4.713 1.455 9.644-3.491 11.177-9.119 2.365-23.788-6.828-30.95-12.256-3.714-2.838-7.55-6.096-11.168-9.666a8.76 8.76 0 0 1-1.129.073c-1.093 0-2.11-.19-3.05-.571a7.72 7.72 0 0 1-1.678-.94 95.292 95.292 0 0 0 4.605 5.119c1.855 2.246 3.871 4.348 5.969 6.37 9.234 8.85 20.413 15.668 32.557 19.674 13.906 4.615 29.009 5.196 43.357 2.601-14.833 2.136-30.218.93-44.198-4.57m-5.8-5.11c3.816 1.267 8.029 2.24 12.04 1.18 7.48-2.286 6.24-10.58 3.81-16.272a49.052 49.052 0 0 0-2.307-4.66c.272.4.54.801.802 1.2 2.67 4.307 5.207 9.061 5.316 14.238.01 3.582-1.756 6.335-5.25 7.374-7.427 1.93-16.836-2.859-24.049-7.54 3.34 1.919 6.6 3.449 9.638 4.48" fill="#0a2b3e" fill-rule="evenodd" data-name="Trazado 110"/><path d="M64.434 41.156c.077-.027.154-.052.229-.084.498-.215.93-.51 1.297-.882a4.02 4.02 0 0 0 .861-1.339 4.454 4.454 0 0 0 .311-1.67c0-.609-.103-1.17-.311-1.681a4.046 4.046 0 0 0-.861-1.328 4.034 4.034 0 0 0-2.916-1.204 4.05 4.05 0 0 0-2.915 1.204 4.036 4.036 0 0 0-.861 1.328 4.431 4.431 0 0 0-.311 1.68c0 .596.103 1.152.311 1.671.207.52.494.965.861 1.339a4.027 4.027 0 0 0 2.915 1.203c.45 0 .874-.066 1.274-.194a84.14 84.14 0 0 1-2.025-2.19 74.47 74.47 0 0 0 2.14 2.147" fill="#0a2b3e" fill-rule="evenodd" data-name="Trazado 111"/><path d="M98.292 37.944v.669h-5.208v2.739h7.937a55.25 55.25 0 0 0-2.73-3.408" fill="#0a2b3e" fill-rule="evenodd" data-name="Trazado 112"/><path d="M123.449 43.852c.989.533 2.154.799 3.496.799s2.507-.27 3.496-.81a5.716 5.716 0 0 0 2.304-2.282c.546-.982.82-2.13.82-3.445v-8.196h-3.57v8.196c0 .651-.124 1.221-.373 1.712a2.678 2.678 0 0 1-1.048 1.131c-.45.263-.986.394-1.608.394-.61 0-1.145-.13-1.608-.394a2.637 2.637 0 0 1-1.069-1.13c-.249-.492-.374-1.062-.374-1.713v-8.196h-3.568v8.196c0 1.329.27 2.484.809 3.466a5.576 5.576 0 0 0 2.293 2.272" fill="#0a2b3e" fill-rule="evenodd" data-name="Trazado 113"/><path d="M147.218 37.14c-.727-.706-1.788-1.17-3.185-1.39l-3.01-.499c-.608-.11-1.047-.263-1.317-.457-.27-.193-.404-.47-.404-.83a.92.92 0 0 1 .28-.674c.186-.187.456-.332.809-.436a4.482 4.482 0 0 1 1.256-.155c1.48 0 2.967.574 4.46 1.722l1.889-2.635c-.803-.65-1.75-1.159-2.843-1.526a10.204 10.204 0 0 0-3.258-.55c-1.231 0-2.293.18-3.185.54-.892.36-1.577.879-2.054 1.557-.477.677-.716 1.487-.716 2.427 0 1.065.318 1.944.955 2.635.636.692 1.542 1.142 2.718 1.35l3.195.56c.733.124 1.252.297 1.557.518.304.222.456.533.456.934 0 .29-.104.543-.311.757-.208.215-.505.377-.892.488-.388.111-.858.166-1.411.166-.844 0-1.64-.156-2.387-.467-.746-.311-1.563-.826-2.448-1.546l-1.992 2.594c.9.761 1.923 1.356 3.071 1.785a9.89 9.89 0 0 0 3.486.643c1.314 0 2.448-.194 3.403-.581.954-.387 1.688-.937 2.2-1.65.511-.712.767-1.56.767-2.542 0-1.12-.363-2.033-1.09-2.739" fill="#0a2b3e" fill-rule="evenodd" data-name="Trazado 114"/></g></g></g><defs><clipPath id="a"><path d="M0 0h148.307v78.461H0V0z" data-name="Rectángulo 69"/></clipPath></defs></svg>