<svg width="200" height="25" viewBox="0 0 200 25" fill="none" xmlns="http://www.w3.org/2000/svg">
<mask id="mask0_26_19" style="mask-type:luminance" maskUnits="userSpaceOnUse" x="0" y="0" width="200" height="25">
<path d="M0 0H200V24.7328H0V0Z" fill="white"/>
</mask>
<g mask="url(#mask0_26_19)">
<path fill-rule="evenodd" clip-rule="evenodd" d="M20.6107 0C15.1145 0 11.6794 2.74809 10.3053 8.24427C12.3664 5.49618 14.771 4.46565 17.5191 5.15267C19.087 5.54427 20.2076 6.68244 21.4481 7.94122C23.4687 9.99237 25.8076 12.3664 30.916 12.3664C36.4122 12.3664 39.8473 9.61832 41.2214 4.12214C39.1603 6.87023 36.7557 7.90076 34.0076 7.21374C32.4397 6.82214 31.3191 5.68397 30.0786 4.42519C28.058 2.37405 25.7191 0 20.6107 0ZM10.3053 12.3664C4.80916 12.3664 1.37405 15.1145 0 20.6107C2.06107 17.8626 4.46565 16.8321 7.21374 17.5191C8.78167 17.9115 9.90229 19.0489 11.1427 20.3076C13.1634 22.3588 15.5023 24.7328 20.6107 24.7328C26.1069 24.7328 29.542 21.9847 30.916 16.4885C28.8549 19.2366 26.4504 20.2672 23.7023 19.5802C22.1343 19.1885 21.0137 18.0504 19.7733 16.7916C17.7527 14.7405 15.4137 12.3664 10.3053 12.3664Z" fill="white"/>
<path fill-rule="evenodd" clip-rule="evenodd" d="M61.8282 10.4215H58.2312V17.3833C58.2312 19.2398 59.4495 19.2108 61.8282 19.0947V21.9085C57.0129 22.4886 55.0984 21.1543 55.0984 17.3833V10.4215H52.4297V7.40467H55.0984V3.50848L58.2312 2.58024V7.40467H61.8282V10.4215ZM75.5396 7.40467H78.6725V21.9085H75.5396V19.8199C74.4373 21.3573 72.7259 22.2856 70.4633 22.2856C66.5182 22.2856 63.2404 18.9497 63.2404 14.6566C63.2404 10.3344 66.5182 7.02757 70.4633 7.02757C72.7259 7.02757 74.4373 7.95581 75.5396 9.46421V7.40467ZM70.9564 19.2978C73.5671 19.2978 75.5396 17.3543 75.5396 14.6566C75.5396 11.9589 73.5671 10.0154 70.9564 10.0154C68.3457 10.0154 66.3732 11.9589 66.3732 14.6566C66.3732 17.3543 68.3457 19.2978 70.9564 19.2978ZM83.8938 5.22909C82.7915 5.22909 81.8923 4.30085 81.8923 3.22757C81.8933 2.69704 82.1045 2.18853 82.4797 1.81339C82.8548 1.43825 83.3633 1.22705 83.8938 1.22604C84.4244 1.22705 84.9329 1.43825 85.308 1.81339C85.6832 2.18853 85.8944 2.69704 85.8954 3.22757C85.8954 4.30085 84.9961 5.22909 83.8938 5.22909ZM82.3274 21.9085V7.40467H85.4602V21.9085H82.3274ZM89.0862 21.9085V0.73291H92.219V21.9085H89.0862ZM112.553 7.40467H115.86L111.306 21.9085H108.231L105.214 12.1329L102.169 21.9085H99.0938L94.5396 7.40467H97.8465L100.66 17.4123L103.706 7.40467H106.694L109.711 17.4123L112.553 7.40467ZM119.747 5.22909C118.645 5.22909 117.746 4.30085 117.746 3.22757C117.747 2.69704 117.958 2.18853 118.333 1.81339C118.708 1.43825 119.217 1.22705 119.747 1.22604C120.278 1.22705 120.786 1.43825 121.161 1.81339C121.537 2.18853 121.748 2.69704 121.749 3.22757C121.749 4.30085 120.85 5.22909 119.747 5.22909ZM118.181 21.9085V7.40467H121.314V21.9085H118.181ZM132.569 7.02757C135.818 7.02757 138.138 9.23215 138.138 13.0031V21.9085H135.005V13.3222C135.005 11.1176 133.729 9.95734 131.756 9.95734C129.697 9.95734 128.072 11.1757 128.072 14.1344V21.9085H124.94V7.40467H128.072V9.26116C129.03 7.75276 130.596 7.02757 132.569 7.02757ZM152.99 1.60314H156.123V21.9085H152.99V19.8199C151.888 21.3573 150.176 22.2856 147.914 22.2856C143.969 22.2856 140.691 18.9497 140.691 14.6566C140.691 10.3344 143.969 7.02757 147.914 7.02757C150.176 7.02757 151.888 7.95581 152.99 9.46421V1.60314ZM148.407 19.2978C151.018 19.2978 152.99 17.3543 152.99 14.6566C152.99 11.9589 151.018 10.0154 148.407 10.0154C145.796 10.0154 143.824 11.9589 143.824 14.6566C143.824 17.3543 145.796 19.2978 148.407 19.2978ZM166.624 22.2856C162.243 22.2856 158.966 18.9497 158.966 14.6566C158.966 10.3344 162.243 7.02757 166.624 7.02757C169.466 7.02757 171.932 8.50696 173.092 10.7696L170.395 12.336C169.756 10.9726 168.335 10.1024 166.595 10.1024C164.042 10.1024 162.098 12.0459 162.098 14.6566C162.098 17.2673 164.042 19.2108 166.595 19.2108C168.335 19.2108 169.756 18.3115 170.453 16.9772L173.15 18.5146C171.932 20.8062 169.466 22.2856 166.624 22.2856ZM178.314 11.4077C178.314 14.0474 186.117 12.452 186.117 17.8184C186.117 20.7192 183.593 22.2856 180.46 22.2856C177.56 22.2856 175.471 20.9802 174.543 18.8917L177.24 17.3253C177.705 18.6306 178.865 19.4138 180.46 19.4138C181.853 19.4138 182.926 18.9497 182.926 17.7894C182.926 15.2077 175.123 16.6581 175.123 11.4657C175.123 8.73902 177.473 7.02757 180.431 7.02757C182.81 7.02757 184.782 8.12986 185.798 10.0444L183.158 11.5238C182.636 10.3925 181.621 9.87032 180.431 9.87032C179.3 9.87032 178.314 10.3634 178.314 11.4077ZM191.686 11.4077C191.686 14.0474 199.489 12.452 199.489 17.8184C199.489 20.7192 196.966 22.2856 193.833 22.2856C190.932 22.2856 188.844 20.9802 187.915 18.8917L190.613 17.3253C191.077 18.6306 192.237 19.4138 193.833 19.4138C195.225 19.4138 196.299 18.9497 196.299 17.7894C196.299 15.2077 188.495 16.6581 188.495 11.4657C188.495 8.73902 190.845 7.02757 193.804 7.02757C196.182 7.02757 198.155 8.12986 199.17 10.0444L196.531 11.5238C196.008 10.3925 194.993 9.87032 193.804 9.87032C192.673 9.87032 191.686 10.3634 191.686 11.4077Z" fill="white"/>
</g>
</svg>
